<?xml version="1.0" standalone="no"?>
<!DOCTYPE svg PUBLIC "-//W3C//DTD SVG 20010904//EN"
 "http://www.w3.org/TR/2001/REC-SVG-20010904/DTD/svg10.dtd">
<svg version="1.0" xmlns="http://www.w3.org/2000/svg"
 width="500.000000pt" height="280.000000pt" viewBox="0 0 500.000000 280.000000"
 preserveAspectRatio="xMidYMid meet">

<g transform="translate(0.000000,280.000000) scale(0.100000,-0.100000)"
fill="#000000" stroke="none">
<path d="M700 2202 c-30 -10 -103 -42 -162 -71 -79 -38 -106 -56 -101 -66 10
-29 -7 -61 -82 -150 -98 -115 -146 -197 -186 -315 -30 -88 -33 -105 -33 -230
-1 -98 4 -153 17 -200 19 -72 94 -230 129 -273 l24 -29 49 27 c47 25 86 27
107 7 4 -4 -2 -38 -13 -76 -11 -37 -18 -74 -15 -81 8 -23 142 -96 234 -129 83
-29 94 -31 242 -31 119 0 168 4 211 17 l56 18 -8 57 c-5 32 -11 70 -14 86 -4
23 -1 27 19 27 22 0 25 -6 37 -72 7 -40 13 -74 14 -76 1 -1 14 3 29 9 19 9 24
18 21 33 -22 98 -23 111 -12 118 31 20 39 10 53 -64 6 -39 23 -48 43 -24 8 10
9 26 2 54 -10 45 -7 52 21 52 13 0 20 -10 25 -30 3 -16 8 -30 12 -30 4 0 29
22 55 49 l49 50 -61 133 c-34 74 -62 138 -62 142 0 9 185 1 239 -10 26 -5 28
-3 40 48 7 29 16 98 18 154 18 348 -201 669 -532 779 -44 15 -91 35 -105 45
-86 60 -260 85 -360 52z m303 -60 c113 -56 180 -156 192 -290 6 -63 7 -63 -51
28 l-35 55 6 -49 c4 -27 15 -61 25 -75 10 -14 20 -35 22 -46 3 -18 -4 -20 -93
-26 -105 -7 -132 -13 -169 -39 -37 -26 -80 -30 -114 -13 -24 12 -51 15 -128
10 -91 -5 -98 -4 -98 13 0 11 4 21 9 24 5 3 12 32 16 63 8 70 39 138 72 160
22 14 106 21 141 12 8 -2 19 4 25 14 15 22 3 31 -73 53 -54 17 -96 14 -190
-12 l-25 -7 25 27 c14 16 38 35 55 43 26 14 27 17 11 22 -15 6 -16 9 -3 19 40
33 122 52 218 49 85 -2 103 -6 162 -35z m-400 -184 c-17 -18 -41 -53 -54 -77
-13 -24 -30 -53 -36 -65 -7 -11 -13 -53 -13 -93 0 -64 -11 -96 -27 -79 -3 3
-11 48 -18 100 -6 52 -17 102 -24 110 -11 13 -7 17 21 29 19 8 50 29 70 46 29
25 88 59 107 61 3 0 -9 -15 -26 -32z m534 -244 c-3 -3 -12 -4 -19 -1 -8 3 -5
6 6 6 11 1 17 -2 13 -5z m-52 -15 c12 -19 -3 -22 -27 -5 l-22 16 21 0 c12 0
25 -5 28 -11z m95 -22 c0 -12 4 -28 9 -36 13 -20 23 3 15 34 -4 18 -2 25 9 25
17 0 27 -21 27 -58 0 -36 -42 -172 -51 -166 -12 7 -20 -30 -22 -113 -3 -92
-25 -140 -87 -197 -28 -25 -47 -35 -60 -31 -15 5 -17 2 -13 -15 3 -11 -2 -31
-11 -45 -9 -13 -16 -31 -16 -40 0 -27 -32 -16 -76 28 -43 44 -44 44 -42 110 2
52 5 64 15 55 10 -8 13 -5 13 10 0 12 -8 26 -17 31 -16 9 -16 12 -3 21 8 5 30
10 48 10 18 0 49 7 69 15 48 20 52 19 64 -15 12 -34 29 -40 29 -10 0 10 7 35
16 54 22 46 12 96 -24 119 -15 9 -42 28 -61 42 -42 31 -51 31 -51 4 0 -46 -77
-66 -119 -31 -20 16 -21 23 -14 92 7 65 11 75 29 78 14 2 24 -5 32 -23 12 -27
38 -29 36 -4 -1 11 16 14 75 13 96 0 106 -6 86 -45 -14 -26 -14 -29 0 -29 19
0 45 57 45 99 0 18 7 34 17 40 23 12 33 5 33 -22z m-135 -4 c18 -14 18 -15 2
-9 -10 3 -33 6 -50 6 -24 0 -28 3 -17 10 21 14 42 12 65 -7z m-332 -20 c4 -3
-12 -15 -35 -25 -51 -23 -60 -17 -16 11 36 23 41 24 51 14z m-158 -13 c-3 -5
-10 -10 -16 -10 -5 0 -9 5 -9 10 0 6 7 10 16 10 8 0 12 -4 9 -10z m54 -9 c-26
-21 -35 -20 -26 4 4 8 16 15 28 15 21 0 21 0 -2 -19z m-95 -43 c3 -13 6 -27 6
-33 -1 -15 -30 27 -30 42 0 22 17 15 24 -9z m253 15 c-9 -9 13 -34 24 -27 15
9 -3 -29 -28 -59 -13 -16 -23 -34 -23 -40 0 -7 -16 -23 -35 -36 l-36 -24 -29
28 c-33 32 -38 47 -14 43 10 -2 19 3 21 10 3 6 0 12 -6 12 -14 0 -51 37 -51
51 0 7 9 9 22 6 14 -4 29 0 41 10 10 10 39 20 65 24 26 3 49 7 51 8 2 0 1 -2
-2 -6z m36 -142 c-9 -12 -25 20 -18 36 7 16 9 15 15 -7 4 -14 5 -27 3 -29z
m230 -25 c44 -39 37 -46 -51 -46 -31 0 -88 -7 -127 -15 -105 -22 -112 -21 -75
16 28 29 34 31 75 24 41 -6 49 -3 82 24 21 17 42 31 48 31 5 -1 27 -16 48 -34z
m-324 -116 c16 -61 46 -102 60 -81 7 11 13 7 25 -17 21 -40 20 -42 -7 -42 -49
0 -127 89 -127 145 0 65 32 61 49 -5z m259 20 c-26 -16 -108 -25 -108 -12 0
10 33 17 95 20 24 1 27 -1 13 -8z m243 -141 c12 -43 9 -128 -7 -205 -8 -42
-13 -78 -10 -81 8 -8 53 148 61 210 13 105 29 70 66 -146 12 -70 19 -130 16
-133 -6 -6 -231 -33 -274 -34 -17 0 -23 6 -23 23 0 12 -9 41 -20 65 -24 53
-13 54 58 7 59 -40 67 -36 21 11 l-30 31 30 6 c28 6 31 10 31 44 0 56 -11 67
-56 58 l-38 -7 50 46 c28 24 61 65 75 90 26 50 40 54 50 15z m-501 -104 c9 -8
40 -28 69 -43 l52 -29 -30 -6 c-28 -6 -31 -10 -31 -44 0 -55 11 -67 54 -60 40
6 42 3 21 -33 -26 -45 -16 -44 26 4 46 53 61 58 49 19 -25 -87 -42 -113 -79
-122 -61 -16 -201 -35 -208 -28 -26 27 -29 247 -3 247 5 0 24 -28 43 -62 33
-59 117 -154 117 -132 0 5 -18 33 -39 61 -79 106 -113 293 -41 228z m256 -292
c-11 -11 -17 4 -9 23 7 18 8 18 11 1 2 -10 1 -21 -2 -24z"/>
<path d="M2092 1858 c-20 -20 -14 -43 18 -66 17 -13 30 -32 30 -44 0 -25 -146
-558 -167 -608 -19 -47 -50 -78 -84 -85 -16 -4 -29 -13 -29 -20 0 -7 -3 -20
-6 -29 -5 -14 18 -16 224 -16 200 0 231 2 236 16 12 31 6 51 -19 62 -18 8 -25
19 -25 39 0 22 44 195 66 262 3 9 36 -32 80 -100 106 -159 154 -212 221 -245
53 -26 67 -28 211 -32 123 -4 156 -2 163 9 15 24 10 47 -13 54 -51 16 -96 66
-206 232 -97 147 -113 176 -101 187 38 35 372 298 401 316 18 11 40 20 49 20
14 0 28 26 29 53 0 13 -445 8 -458 -5 -19 -19 -14 -37 15 -62 25 -21 26 -26
13 -41 -28 -33 -365 -286 -368 -276 -4 11 65 267 79 292 4 9 21 22 38 28 28
12 46 45 35 63 -9 14 -418 10 -432 -4z"/>
<path d="M3225 1855 c-3 -8 -7 -21 -9 -29 -3 -7 7 -19 20 -25 53 -24 53 -30
-55 -423 -56 -201 -101 -371 -101 -377 0 -8 59 -11 194 -11 l194 0 7 32 c5 21
4 33 -4 36 -23 8 -41 34 -41 59 0 14 12 71 27 128 l27 103 44 6 c100 14 210 0
244 -31 15 -14 18 -12 27 24 24 94 41 161 41 167 0 3 -67 6 -150 6 -82 0 -150
3 -150 7 0 4 9 42 21 85 l21 78 149 0 148 0 36 -31 c20 -18 38 -29 41 -26 10
9 62 226 56 232 -3 3 -180 5 -394 5 -337 0 -389 -2 -393 -15z"/>
<path d="M4425 1854 c-237 -53 -419 -188 -485 -361 -31 -80 -31 -187 -1 -266
43 -109 159 -197 308 -234 83 -20 300 -21 418 -1 l79 13 20 82 c11 46 17 85
14 88 -3 3 -36 -2 -74 -11 -92 -22 -215 -22 -281 0 -205 69 -260 308 -104 449
120 109 342 128 457 41 24 -19 48 -34 53 -34 8 0 61 173 61 202 0 26 -74 40
-240 44 -115 3 -173 0 -225 -12z"/>
</g>
</svg>
