<?xml version="1.0" standalone="no"?>
<!DOCTYPE svg PUBLIC "-//W3C//DTD SVG 20010904//EN"
 "http://www.w3.org/TR/2001/REC-SVG-20010904/DTD/svg10.dtd">
<svg version="1.0" xmlns="http://www.w3.org/2000/svg"
 width="840.000000pt" height="859.000000pt" viewBox="0 0 840.000000 859.000000"
 preserveAspectRatio="xMidYMid meet">

<g transform="translate(0.000000,859.000000) scale(0.100000,-0.100000)"
fill="#000000" stroke="none">
<path d="M5928 7923 c-25 -14 -66 -46 -90 -71 -43 -47 -98 -143 -98 -173 0 -9
-3 -19 -7 -22 -12 -13 -43 -111 -43 -139 0 -15 -4 -30 -10 -33 -5 -3 -10 -23
-10 -43 0 -55 -35 -222 -60 -287 -24 -62 -45 -111 -51 -115 -3 -3 -9 -14 -13
-26 -3 -11 -14 -29 -24 -40 -9 -10 -30 -36 -45 -57 -58 -78 -182 -147 -262
-147 -50 0 -100 45 -140 126 -19 38 -35 80 -35 91 0 12 -4 25 -10 28 -5 3 -10
26 -10 51 0 24 -4 44 -10 44 -5 0 -10 14 -10 31 0 37 -32 163 -42 167 -5 2 -8
12 -8 23 0 10 -4 19 -8 19 -5 0 -14 11 -20 25 -15 34 -92 69 -134 62 -76 -13
-98 -20 -98 -28 0 -5 -5 -9 -11 -9 -14 0 -89 -76 -89 -90 0 -5 -5 -10 -10 -10
-6 0 -21 -9 -33 -20 -37 -35 -68 -23 -99 40 -15 30 -28 63 -28 73 0 38 -49
122 -77 134 -68 29 -80 31 -128 21 -43 -9 -105 -52 -105 -72 0 -10 -53 -88
-72 -108 -19 -19 -78 -25 -78 -9 0 5 -8 12 -19 16 -10 3 -45 32 -78 64 -91 88
-141 98 -251 49 -44 -19 -56 -31 -78 -74 -23 -46 -25 -58 -21 -150 3 -54 11
-133 18 -174 8 -41 14 -120 14 -175 0 -144 -31 -200 -121 -225 -31 -9 -47 -9
-62 -1 -11 6 -30 11 -41 11 -22 0 -94 31 -99 43 -2 4 -9 7 -15 7 -33 0 -107
104 -107 150 0 11 -4 20 -10 20 -5 0 -10 15 -10 33 0 43 -30 247 -40 272 -5
11 -11 34 -14 50 -2 17 -12 59 -21 95 -9 36 -18 76 -21 90 -13 63 -86 180
-113 180 -6 0 -11 5 -11 10 0 6 -9 10 -19 10 -11 0 -23 5 -26 10 -15 24 -195
3 -195 -22 0 -4 -6 -8 -13 -8 -19 0 -69 -52 -88 -91 -9 -19 -22 -47 -30 -63
-21 -44 -18 -207 5 -280 15 -48 91 -177 115 -196 4 -3 30 -32 58 -65 29 -33
88 -97 132 -143 45 -46 81 -87 81 -92 0 -5 6 -15 13 -22 26 -28 42 -73 42
-119 0 -42 -4 -52 -34 -78 -19 -17 -40 -31 -47 -31 -28 0 -81 63 -124 147 -25
48 -48 90 -52 91 -5 2 -8 8 -8 14 0 6 -11 26 -25 44 -14 18 -25 36 -25 41 0 4
-18 26 -39 49 -58 59 -137 78 -212 52 -38 -13 -109 -74 -109 -94 0 -7 -5 -14
-12 -16 -8 -3 -12 -34 -12 -94 -1 -82 2 -96 29 -147 16 -31 39 -69 52 -83 13
-15 23 -30 23 -34 0 -3 25 -33 56 -66 102 -107 137 -160 138 -208 1 -36 -4
-49 -27 -70 -15 -14 -39 -29 -52 -32 -14 -3 -25 -10 -25 -14 0 -9 -43 -19
-114 -27 -58 -6 -115 10 -171 48 -40 28 -125 112 -125 124 0 3 -10 16 -22 29
-13 12 -41 46 -63 73 -22 28 -51 58 -65 66 -14 9 -34 24 -45 34 -52 48 -231
93 -250 63 -3 -5 -16 -10 -29 -10 -24 0 -126 -47 -126 -59 0 -3 -16 -15 -35
-25 -19 -11 -35 -23 -35 -28 0 -5 -6 -16 -13 -23 -29 -33 -37 -45 -37 -54 0
-5 -3 -11 -7 -13 -13 -5 -43 -101 -43 -135 0 -17 -5 -35 -11 -39 -6 -3 -8 -18
-5 -33 4 -14 9 -42 12 -61 7 -48 36 -130 46 -130 4 0 8 -6 8 -13 0 -28 137
-137 172 -137 10 0 18 -4 18 -10 0 -5 7 -10 14 -10 8 0 36 -11 62 -25 26 -14
51 -25 56 -25 5 0 21 -11 36 -25 15 -14 31 -25 36 -25 5 0 16 -8 25 -18 9 -10
33 -31 53 -46 21 -16 38 -35 38 -42 0 -8 5 -14 10 -14 14 0 13 -56 -1 -83 -14
-27 -67 -75 -91 -83 -10 -3 -18 -10 -18 -15 0 -5 -6 -9 -12 -9 -7 0 -35 -11
-63 -25 -27 -13 -58 -25 -67 -25 -9 0 -20 -4 -23 -10 -3 -5 -18 -10 -32 -10
-27 0 -75 -11 -160 -37 -61 -19 -123 -66 -123 -94 0 -11 -4 -29 -10 -39 -7
-12 -6 -46 1 -102 11 -76 15 -86 48 -118 38 -37 99 -70 131 -70 10 0 22 -4 25
-10 3 -5 23 -10 44 -10 66 0 141 -40 141 -75 0 -17 -62 -82 -95 -101 -119 -66
-154 -80 -225 -89 -25 -4 -54 -11 -65 -15 -11 -5 -49 -11 -85 -14 -143 -9
-307 -34 -365 -56 -56 -21 -186 -60 -200 -60 -8 0 -15 -4 -15 -10 0 -5 -4 -10
-10 -10 -17 0 -90 -34 -90 -42 0 -5 -7 -8 -15 -8 -14 0 -61 -25 -75 -40 -3 -3
-21 -17 -40 -32 -67 -50 -180 -168 -180 -187 0 -5 -4 -11 -8 -13 -24 -10 -80
-128 -89 -186 -3 -18 -9 -35 -14 -38 -13 -7 -11 -111 2 -153 26 -85 77 -153
134 -179 14 -7 36 -17 49 -23 14 -7 51 -12 83 -13 62 -1 183 23 183 36 0 4 7
8 15 8 18 0 89 32 93 43 2 4 10 7 18 7 8 0 14 5 14 10 0 6 6 10 14 10 8 0 21
6 28 13 7 8 34 26 58 42 25 15 47 31 50 34 3 3 23 20 45 36 51 38 70 53 114
91 20 17 47 39 60 50 13 10 40 34 60 53 20 18 62 56 95 85 32 28 102 94 155
146 53 53 114 109 136 125 22 17 42 32 45 35 8 8 73 38 107 48 71 23 163 -44
163 -118 0 -63 -42 -121 -131 -179 -42 -28 -84 -51 -93 -51 -9 0 -16 -4 -16
-10 0 -5 -10 -10 -22 -10 -13 0 -32 -7 -42 -15 -11 -8 -28 -15 -38 -15 -10 0
-18 -3 -18 -8 0 -4 -12 -13 -28 -20 -109 -49 -176 -202 -125 -289 33 -58 140
-113 222 -113 35 0 134 30 139 43 2 4 15 7 28 7 13 0 24 4 24 8 0 5 24 14 53
20 94 21 160 -16 143 -81 -9 -36 -100 -124 -192 -184 -45 -29 -87 -53 -93 -53
-6 0 -11 -4 -11 -10 0 -5 -9 -10 -20 -10 -11 0 -20 -4 -20 -9 0 -5 -9 -13 -20
-16 -24 -8 -148 -128 -203 -197 -21 -26 -44 -53 -50 -60 -13 -13 -31 -51 -58
-118 -9 -22 -14 -72 -13 -135 l0 -101 44 -67 c35 -53 54 -72 95 -91 70 -34
128 -50 162 -43 15 3 48 10 73 15 53 11 111 31 124 43 6 5 16 9 24 9 8 0 36
16 62 35 26 19 51 35 55 35 3 0 13 7 21 15 25 24 81 30 110 10 21 -14 25 -22
19 -43 -3 -15 -9 -43 -12 -62 -3 -19 -9 -37 -14 -40 -12 -8 -23 -113 -15 -153
15 -78 108 -136 218 -137 83 0 125 16 244 92 50 32 96 58 102 58 7 0 12 5 12
10 0 6 7 10 15 10 8 0 15 4 15 8 0 5 20 17 45 28 25 10 45 22 45 26 0 4 5 8
10 8 6 0 34 12 63 26 39 19 69 26 119 27 59 1 69 -2 89 -23 11 -14 25 -36 31
-50 11 -28 1 -120 -13 -120 -5 0 -9 -5 -9 -11 0 -6 -12 -27 -27 -47 -31 -41
-169 -182 -178 -182 -3 0 -18 -11 -33 -25 -15 -14 -32 -25 -39 -25 -7 0 -13
-3 -13 -8 0 -4 -30 -27 -67 -52 -38 -25 -69 -48 -71 -52 -2 -5 -8 -8 -13 -8
-8 0 -33 -20 -83 -65 -12 -12 -33 -30 -47 -40 -13 -11 -44 -45 -69 -75 -25
-30 -48 -56 -52 -58 -5 -2 -8 -10 -8 -18 0 -8 -4 -14 -9 -14 -5 0 -21 -26 -37
-57 -16 -32 -31 -60 -34 -63 -10 -10 -40 -105 -40 -127 0 -12 -4 -25 -10 -28
-14 -8 -13 -130 2 -174 23 -73 43 -121 51 -121 4 0 7 -5 7 -10 0 -33 147 -160
184 -160 9 0 16 -4 16 -9 0 -5 12 -11 28 -14 101 -21 141 -26 177 -21 58 8
125 27 125 36 0 4 6 8 14 8 13 0 75 29 86 40 3 3 23 18 45 35 44 32 125 112
125 124 0 4 8 16 17 27 29 32 76 122 108 204 10 25 23 59 30 75 7 17 23 55 35
85 12 30 33 79 46 108 13 29 24 57 24 62 0 6 5 10 10 10 6 0 10 11 10 25 0 14
5 25 10 25 6 0 10 6 10 14 0 17 142 298 160 316 7 7 29 42 37 60 10 20 42 59
86 103 30 30 45 37 76 37 57 0 81 -31 81 -104 0 -50 -24 -150 -40 -166 -5 -5
-25 -38 -49 -84 -9 -17 -24 -39 -33 -50 -10 -11 -18 -23 -18 -27 0 -4 -6 -14
-12 -21 -7 -7 -26 -31 -42 -53 -17 -22 -33 -42 -38 -45 -18 -13 -58 -103 -58
-131 0 -43 31 -89 82 -122 30 -19 162 -25 173 -7 3 6 13 10 21 10 33 0 110 45
154 89 47 47 120 161 120 187 0 8 4 14 10 14 5 0 12 16 16 35 3 19 10 38 15
41 5 3 9 12 9 19 0 24 33 55 57 55 13 0 28 -10 35 -22 17 -32 14 -179 -6 -257
-9 -34 -16 -73 -16 -86 0 -13 -4 -26 -9 -29 -13 -8 -25 -166 -17 -219 8 -55
46 -98 106 -120 58 -21 102 -22 143 0 33 16 87 71 87 87 0 5 6 17 14 25 7 9
26 50 41 91 15 41 31 83 36 92 5 10 9 25 9 33 0 8 5 15 10 15 6 0 10 7 10 15
0 28 47 65 82 65 36 0 68 -27 68 -58 0 -10 4 -22 10 -28 5 -5 11 -99 13 -209
4 -250 14 -292 87 -365 52 -53 98 -70 185 -70 73 0 155 22 155 41 0 5 5 9 11
9 14 0 39 25 39 39 0 6 4 11 9 11 4 0 16 20 25 45 22 56 17 236 -8 335 -9 36
-19 76 -22 90 -3 14 -9 34 -13 45 -5 11 -16 47 -27 80 -10 33 -21 67 -25 75
-27 57 -34 117 -34 277 0 124 3 175 13 185 6 6 12 21 12 33 0 11 17 45 38 75
28 42 44 56 65 58 57 7 101 -48 127 -161 11 -49 11 -74 0 -155 -27 -197 -10
-307 59 -372 34 -33 87 -60 118 -60 12 0 23 -4 23 -10 0 -5 23 -10 50 -10 28
0 50 5 50 10 0 6 14 10 31 10 30 0 141 46 147 62 2 4 8 8 14 8 24 0 118 119
118 149 0 12 5 21 10 21 13 0 13 147 0 155 -5 3 -10 17 -10 31 0 13 -4 32 -9
42 -5 9 -24 47 -42 84 -18 37 -41 77 -51 87 -10 11 -18 24 -18 29 0 5 -6 15
-14 21 -17 15 -86 155 -86 175 0 8 -4 18 -10 21 -5 3 -10 44 -10 91 0 49 4 84
10 84 6 0 10 6 10 13 1 42 110 103 166 92 36 -6 104 -67 104 -92 0 -7 5 -13
10 -13 6 0 10 -11 10 -24 0 -13 3 -26 8 -28 10 -4 42 -137 42 -175 0 -17 5
-35 10 -38 6 -3 10 -29 10 -56 0 -50 22 -166 42 -224 38 -111 95 -202 179
-287 84 -85 163 -125 288 -145 39 -6 211 17 211 29 0 4 6 8 14 8 17 0 80 32
84 43 2 4 9 7 15 7 25 0 127 120 127 148 0 5 7 23 15 38 8 16 15 39 15 51 0
12 4 24 9 27 10 6 24 110 24 181 0 59 -13 156 -23 170 -4 6 -10 24 -14 40 -15
67 -63 142 -146 226 -107 107 -190 209 -190 231 0 9 -3 18 -7 20 -12 5 -43 76
-43 98 0 10 -4 22 -10 25 -13 8 -13 129 -1 153 6 9 18 36 27 60 10 23 21 42
26 42 4 0 8 5 8 10 0 20 52 68 78 73 31 6 112 -11 112 -24 0 -5 5 -9 11 -9 12
0 132 -121 164 -165 11 -15 26 -33 33 -40 6 -8 12 -17 12 -21 0 -3 8 -14 18
-23 10 -9 26 -27 35 -41 56 -84 161 -190 187 -190 11 0 20 -4 20 -10 0 -15
143 -12 171 2 28 15 90 58 104 73 23 24 65 84 65 94 0 6 5 11 10 11 6 0 10 8
10 18 0 9 7 35 15 57 19 53 19 124 -1 182 -15 45 -76 140 -99 155 -6 3 -26 20
-45 37 -19 17 -41 31 -47 31 -7 0 -13 4 -13 9 0 5 -39 28 -87 51 -49 23 -96
46 -105 51 -10 5 -22 9 -28 9 -17 0 -100 74 -145 130 -20 26 -33 127 -21 174
8 32 82 106 106 106 10 0 22 4 25 10 3 6 28 10 55 10 52 0 159 -40 194 -72 11
-10 23 -18 26 -18 4 0 20 -11 36 -25 16 -14 32 -25 36 -25 4 0 18 -11 32 -25
14 -14 29 -25 35 -25 5 0 11 -4 13 -8 5 -12 116 -92 128 -92 5 0 10 -3 10 -8
0 -7 14 -14 94 -46 56 -23 197 -21 260 3 101 38 159 135 173 289 7 78 -22 133
-90 172 -74 44 -91 54 -97 60 -3 3 -22 18 -43 33 -55 41 -107 123 -107 169 0
30 9 48 43 86 23 27 49 58 58 68 24 30 49 101 49 139 0 18 5 46 10 61 18 46
-23 110 -90 140 -14 7 -41 19 -60 27 -47 21 -80 53 -80 78 0 23 30 79 42 79 4
0 8 4 8 10 0 9 20 35 55 74 6 6 28 36 50 66 38 51 40 59 40 125 0 63 -3 73
-29 103 -16 17 -38 32 -48 32 -10 0 -18 5 -18 10 0 12 -57 13 -64 1 -3 -4 -21
-11 -39 -14 -18 -3 -53 -14 -78 -25 -78 -36 -169 -51 -309 -51 -85 -1 -128 3
-164 16 -56 20 -106 72 -106 110 0 34 58 89 102 96 18 4 69 13 113 22 44 9
104 18 133 22 28 3 52 9 52 14 0 5 7 9 15 9 17 0 89 43 115 69 45 44 60 79 60
139 0 35 -7 72 -16 92 -25 50 -90 110 -118 110 -14 0 -28 5 -31 10 -3 6 -21
10 -40 10 -19 0 -37 -4 -40 -10 -3 -5 -19 -10 -34 -10 -15 0 -51 -11 -79 -25
-29 -14 -56 -25 -62 -25 -5 0 -10 -3 -10 -8 0 -7 -30 -25 -62 -38 -10 -3 -18
-10 -18 -15 0 -5 -9 -9 -19 -9 -11 0 -21 -3 -23 -7 -4 -11 -67 -43 -84 -43 -8
0 -14 -4 -14 -9 0 -16 -149 -44 -208 -38 -60 6 -82 23 -82 64 0 29 29 103 41
103 5 0 9 5 9 11 0 9 39 50 87 89 10 9 36 23 58 33 22 10 48 22 57 27 10 6 27
10 37 10 11 0 23 5 26 10 3 6 14 10 23 10 9 0 30 7 46 15 15 8 37 15 47 15 10
0 21 5 24 10 3 6 15 10 25 10 11 0 36 7 57 16 21 9 47 20 58 24 48 18 143 65
172 87 17 13 34 23 38 23 11 0 104 102 110 121 4 11 11 19 16 19 5 0 9 7 9 15
0 8 4 15 8 15 18 0 45 117 40 177 -8 119 -98 237 -218 287 -25 10 -53 23 -64
28 -32 17 -215 12 -276 -7 -30 -10 -59 -22 -64 -26 -6 -5 -18 -9 -28 -9 -10 0
-18 -4 -18 -9 0 -5 -8 -11 -17 -15 -18 -6 -54 -27 -63 -37 -3 -3 -22 -18 -43
-33 -80 -61 -226 -215 -311 -331 -65 -87 -160 -181 -208 -206 -57 -29 -118
-25 -151 9 -23 24 -27 37 -27 85 0 31 5 57 10 57 6 0 10 7 10 15 0 8 11 25 25
39 14 14 25 28 25 31 0 4 6 12 13 19 42 44 87 96 87 101 0 3 11 17 25 31 14
14 25 31 25 39 0 8 3 15 8 15 20 0 44 87 40 145 -4 65 -28 104 -80 131 -61 32
-168 4 -205 -54 -10 -15 -20 -29 -23 -32 -3 -3 -12 -18 -20 -35 -8 -16 -17
-32 -20 -35 -3 -3 -21 -30 -41 -60 -71 -108 -215 -230 -273 -230 -14 0 -28 -4
-31 -10 -8 -13 -50 -13 -73 -1 -9 6 -29 12 -45 16 -37 7 -107 79 -107 108 0
13 -5 28 -12 35 -9 9 -8 25 1 69 11 54 39 132 51 143 3 3 14 21 24 40 11 19
22 37 25 40 3 3 19 23 35 45 17 22 92 102 167 178 76 75 141 146 144 157 4 11
11 20 16 20 5 0 9 7 9 15 0 8 4 15 8 15 30 0 56 321 33 406 -18 67 -83 148
-148 183 -75 41 -164 42 -235 4z"/>
<path d="M4790 7870 c-24 -15 -19 -159 6 -188 22 -26 87 -30 111 -7 40 41 35
149 -9 187 -23 19 -83 24 -108 8z"/>
<path d="M6835 7333 c-53 -28 -99 -93 -110 -157 -4 -20 -11 -39 -16 -42 -5 -3
-9 -30 -9 -60 0 -74 27 -106 92 -106 25 0 56 6 69 14 61 35 129 128 129 178 0
10 5 22 10 25 14 9 12 61 -2 87 -42 73 -100 95 -163 61z"/>
<path d="M7793 2484 c-49 -21 -63 -49 -63 -126 0 -62 22 -137 43 -146 4 -2 7
-12 7 -23 0 -10 3 -19 8 -19 4 0 16 -15 26 -34 23 -43 83 -107 116 -124 61
-30 123 -42 165 -30 46 13 95 58 95 87 0 10 5 21 11 23 7 2 12 34 12 83 0 68
-3 86 -24 117 -13 21 -28 38 -32 38 -5 0 -21 12 -36 28 -15 15 -44 38 -64 52
-20 14 -37 28 -37 33 0 4 -7 7 -15 7 -8 0 -15 4 -15 9 0 12 -99 41 -137 40
-15 0 -42 -7 -60 -15z"/>
<path d="M1810 2022 c-48 -13 -100 -36 -100 -44 0 -4 -5 -8 -10 -8 -26 0 -131
-109 -157 -162 -26 -54 -43 -116 -43 -156 0 -88 81 -162 177 -162 45 0 153 43
153 61 0 5 6 9 14 9 23 0 121 106 140 151 10 24 22 52 27 61 12 24 11 158 -1
158 -5 0 -10 8 -10 18 -1 44 -124 92 -190 74z"/>
<path d="M5835 1221 c-40 -11 -77 -28 -96 -43 -21 -17 -49 -72 -49 -98 0 -11
-4 -20 -10 -20 -6 0 -10 -35 -10 -84 0 -47 5 -88 10 -91 6 -3 10 -14 10 -24 0
-20 28 -80 44 -96 48 -48 85 -54 159 -29 51 17 137 102 137 134 0 10 5 20 12
22 7 3 11 34 11 94 0 81 -3 95 -33 152 -18 34 -38 62 -45 62 -7 0 -15 5 -17
11 -5 14 -84 20 -123 10z"/>
</g>
</svg>
